<svg width="102" height="54" viewBox="0 0 102 54" fill="none" xmlns="http://www.w3.org/2000/svg">
<rect width="102" height="54" fill="#F5F5F5"/>
<circle cx="27" cy="27" r="22" stroke="black" stroke-width="10"/>
<path d="M97 27C97 39.7202 87.956 49 78 49C68.044 49 59 39.7202 59 27C59 14.2798 68.044 5 78 5C87.956 5 97 14.2798 97 27Z" fill="black" stroke="black" stroke-width="10"/>
<path d="M77.59 16.54H80.71L87.73 37H85.12L83.32 31.54H75.01L73.18 37H70.57L77.59 16.54ZM82.51 29.14L79.21 18.94H79.12L75.79 29.14H82.51Z" fill="#F8F1F1"/>
<path d="M36.21 19.42C35.33 19.24 34.39 19.07 33.39 18.91C32.41 18.75 31.27 18.65 29.97 18.61C28.65 18.63 27.51 18.83 26.55 19.21C25.59 19.59 24.8 20.14 24.18 20.86C23.58 21.56 23.13 22.4 22.83 23.38C22.53 24.36 22.38 25.44 22.38 26.62C22.38 28.14 22.57 29.44 22.95 30.52C23.35 31.6 23.89 32.49 24.57 33.19C25.27 33.87 26.08 34.37 27 34.69C27.92 35.01 28.91 35.17 29.97 35.17C30.65 35.17 31.26 35.13 31.8 35.05C32.36 34.97 32.84 34.88 33.24 34.78C33.66 34.66 34.04 34.53 34.38 34.39V28.9H30.63V26.65H36.93V35.62C36.23 36.08 35.26 36.5 34.02 36.88C32.8 37.24 31.45 37.41 29.97 37.39C28.61 37.39 27.3 37.23 26.04 36.91C24.8 36.59 23.69 36.03 22.71 35.23C21.75 34.41 20.98 33.3 20.4 31.9C19.82 30.5 19.53 28.73 19.53 26.59C19.53 24.85 19.8 23.34 20.34 22.06C20.88 20.76 21.61 19.69 22.53 18.85C23.47 17.99 24.55 17.35 25.77 16.93C27.01 16.49 28.32 16.27 29.7 16.27C30.6 16.27 31.47 16.32 32.31 16.42C33.15 16.5 33.92 16.6 34.62 16.72C35.32 16.82 35.99 16.95 36.63 17.11L36.21 19.42Z" fill="black"/>
</svg>
